<svg version="1.1" id="Layer_1" xmlns="http://www.w3.org/2000/svg" xmlns:xlink="http://www.w3.org/1999/xlink" x="0px" y="0px"
	 width="2048" height="2048" viewBox="0 0 2048 2048" enable-background="new 0 0 2048 2048" xml:space="preserve">
<path fill="#EDE4DF" opacity="1.000000" stroke="none" 
	d="
M1.000000,1839.000000 
	C1.000000,1226.374878 1.000000,613.749756 1.000000,1.062336 
	C683.578796,1.062336 1366.157593,1.062336 2049.000000,1.062336 
	C2049.000000,606.037598 2049.000000,1211.075195 2048.531250,1816.558105 
	C2025.101562,1817.329102 2002.141235,1817.747070 1979.178955,1817.960205 
	C1936.221558,1818.358887 1893.263062,1818.651489 1850.304810,1818.965332 
	C1802.182495,1819.317017 1754.059814,1819.626221 1705.937500,1819.985596 
	C1664.479980,1820.295288 1623.022949,1820.671143 1581.565430,1820.978271 
	C1533.441895,1821.334839 1485.317871,1821.607300 1437.194702,1821.994751 
	C1405.069214,1822.253296 1372.944946,1822.658325 1340.819946,1822.980591 
	C1306.861328,1823.321289 1272.902710,1823.691772 1238.943481,1823.949463 
	C1221.781250,1824.079834 1204.617065,1823.950073 1187.454590,1824.056641 
	C1185.597412,1824.068115 1183.745117,1824.872070 1181.578125,1825.167358 
	C1156.857300,1801.786743 1139.002563,1774.208130 1126.878662,1742.840942 
	C1113.721436,1708.799683 1108.922363,1673.085327 1107.284668,1637.019897 
	C1106.244263,1614.105469 1107.721680,1591.076660 1108.498779,1568.072754 
	C1136.772583,1571.498657 1164.601318,1575.089233 1192.467407,1578.360962 
	C1215.890503,1581.111084 1239.338135,1583.686646 1262.810913,1585.968750 
	C1280.669800,1587.705322 1298.576294,1588.990112 1316.478027,1590.238770 
	C1336.495361,1591.635010 1356.516113,1593.301880 1376.563110,1593.865356 
	C1398.857056,1594.492065 1421.192261,1594.425659 1443.490601,1593.882935 
	C1463.708862,1593.390747 1483.901733,1591.852661 1504.336792,1591.040527 
	C1507.318726,1596.733032 1512.824951,1597.298462 1517.719482,1597.865967 
	C1537.450195,1600.154297 1557.236450,1601.963135 1577.169189,1604.105225 
	C1577.890625,1604.173218 1578.445312,1604.084961 1579.461182,1604.019043 
	C1602.339600,1603.704468 1624.804688,1604.150513 1647.159424,1602.788330 
	C1665.839600,1601.650024 1684.472046,1598.908569 1702.983276,1595.978027 
	C1750.986328,1588.378906 1794.885132,1570.676147 1833.438477,1540.739502 
	C1851.816772,1526.468994 1868.170654,1510.363281 1879.225708,1489.322632 
	C1888.279053,1472.091431 1892.973633,1453.746338 1896.094727,1434.782837 
	C1898.015137,1423.113770 1900.054443,1411.500488 1898.476440,1399.581177 
	C1895.709351,1378.681641 1887.233643,1359.912598 1876.346924,1342.270752 
	C1852.019531,1302.848999 1820.700073,1270.252441 1780.847778,1246.118896 
	C1775.407349,1242.824463 1770.812744,1238.133423 1765.917725,1233.690674 
	C1762.827393,1221.949463 1760.129150,1210.444092 1756.382446,1199.291138 
	C1737.894409,1144.255615 1711.854614,1093.019165 1678.275146,1045.629272 
	C1674.461548,1040.247070 1670.896118,1034.688965 1667.560181,1029.119385 
	C1685.299072,1020.314941 1703.036377,1012.219299 1720.016357,1002.763733 
	C1755.437622,983.039001 1786.179810,957.033813 1815.892578,929.688904 
	C1848.465332,899.712280 1878.245972,867.302734 1902.617920,830.268372 
	C1914.410278,812.349243 1925.073975,793.684753 1936.162598,775.305725 
	C1949.569702,753.083679 1963.135620,730.951111 1976.122314,708.484680 
	C1981.601929,699.005371 1985.777588,688.946045 1985.155029,677.319763 
	C1984.507446,665.227783 1976.928589,660.101624 1966.200073,665.796631 
	C1938.675903,680.407288 1910.346313,693.167175 1880.763184,703.328979 
	C1881.053833,701.340454 1881.404419,699.569275 1882.098389,697.944885 
	C1886.933105,686.630310 1892.105103,675.452637 1896.675537,664.033508 
	C1915.466553,617.084900 1929.846436,568.816589 1937.372314,518.770569 
	C1941.248169,492.997101 1943.198242,466.934021 1946.234131,440.806335 
	C1946.344360,439.737885 1946.239014,438.864807 1946.146240,437.545349 
	C1945.884399,418.812012 1946.166382,400.495148 1945.183228,382.246399 
	C1944.142944,362.936737 1939.600342,344.101776 1933.620483,325.779694 
	C1929.569946,313.368530 1925.297607,300.659851 1918.702393,289.517914 
	C1898.432129,255.273712 1872.997559,224.877472 1845.034302,196.650452 
	C1834.802979,186.322662 1822.203613,179.374039 1808.278931,175.256302 
	C1805.529175,174.443207 1801.470703,175.156693 1799.072998,176.753494 
	C1795.751831,178.965347 1795.085693,183.044525 1796.534180,187.080872 
	C1797.652222,190.196442 1799.249756,193.252304 1799.723755,196.468857 
	C1803.575439,222.607117 1808.341919,248.680161 1810.595703,274.964630 
	C1812.832031,301.048309 1815.300537,327.343994 1811.013672,353.569641 
	C1809.570801,362.395538 1809.740112,371.714661 1806.906006,380.036377 
	C1800.692139,398.281616 1793.969116,416.477600 1785.739624,433.883209 
	C1773.227539,460.347351 1759.385132,486.188690 1745.830933,512.150085 
	C1742.092163,519.311279 1737.370728,525.959473 1733.110107,532.422607 
	C1733.752686,519.372253 1734.503906,506.746765 1734.987915,494.111084 
	C1735.611328,477.837646 1737.011597,461.513550 1736.315918,445.286774 
	C1734.871094,411.578461 1732.666382,377.888550 1730.031982,344.249207 
	C1727.054199,306.224548 1718.339355,269.335419 1705.678467,233.396332 
	C1693.205811,197.992188 1674.421021,166.271255 1650.224976,137.544098 
	C1632.614380,116.635612 1613.621216,97.447655 1589.993286,83.380310 
	C1578.166016,76.338768 1565.833252,70.674080 1551.422852,71.925163 
	C1544.646362,72.513481 1540.124756,77.176544 1541.072510,83.850685 
	C1542.020020,90.522957 1542.959961,97.270119 1544.797241,103.730179 
	C1556.392578,144.501495 1563.718994,185.984955 1566.238159,228.304138 
	C1567.900391,256.227570 1568.591187,284.132141 1566.064575,312.071106 
	C1564.600098,328.264160 1564.052368,344.538635 1562.950439,360.766876 
	C1562.607544,365.816620 1561.800171,370.834869 1561.168091,376.183990 
	C1559.805420,375.640411 1559.159668,375.464752 1558.597656,375.142975 
	C1557.009521,374.234161 1555.426147,373.310760 1553.892822,372.313507 
	C1531.743652,357.907135 1513.997314,339.247742 1500.180542,316.772675 
	C1494.172363,306.999268 1488.479736,296.990387 1481.832520,287.666870 
	C1477.852539,282.084503 1472.104126,277.613464 1464.389893,279.126312 
	C1456.701904,280.634003 1454.144653,287.172546 1452.234009,293.636414 
	C1445.942871,314.919556 1441.747314,336.636047 1440.119141,358.779633 
	C1437.745728,391.057648 1439.788574,423.135376 1444.821289,455.080048 
	C1450.272705,489.683197 1457.841309,523.862122 1470.488159,556.485779 
	C1476.537842,572.091431 1476.443481,585.742004 1472.284668,601.834839 
	C1458.715576,654.341187 1439.202637,704.419617 1415.509521,753.007690 
	C1413.696899,756.725098 1410.941772,760.566223 1407.601440,762.859802 
	C1387.844604,776.425598 1367.785400,789.550903 1347.441650,802.812012 
	C1345.119019,802.393433 1343.164795,802.057678 1341.249268,801.570251 
	C1325.306152,797.512085 1309.448242,793.084656 1293.416382,789.416504 
	C1255.063232,780.641174 1216.190186,775.353455 1176.830566,775.212646 
	C1155.741577,775.137146 1134.573120,776.162903 1113.573975,778.121887 
	C1093.090698,780.032776 1072.557739,782.717834 1052.439575,786.936707 
	C1020.255981,793.685669 988.414490,802.056824 956.390747,809.582336 
	C946.387146,811.933167 936.262329,813.767944 926.073547,815.512329 
	C924.350403,812.464539 922.504761,809.855713 921.180115,807.004883 
	C907.227905,776.976196 892.691528,747.195190 879.640564,716.777710 
	C864.322021,681.075500 853.370178,643.844971 844.251587,606.084167 
	C843.331055,602.272156 844.164429,600.239563 847.457947,597.917053 
	C861.865356,587.757446 876.211670,577.484192 890.160400,566.708740 
	C903.766541,556.197998 916.984131,544.917664 925.506287,529.727905 
	C933.275391,515.880493 940.023315,501.416443 946.542603,486.918915 
	C974.764099,424.160645 999.608337,360.138458 1017.512939,293.589355 
	C1023.345581,271.910034 1028.883545,250.151321 1034.538330,228.424240 
	C1035.468628,224.849960 1035.592407,221.158447 1032.227539,218.903564 
	C1028.824829,216.623398 1025.433594,218.079376 1022.686462,220.622025 
	C1019.271912,223.782532 1015.829041,226.956589 1012.769653,230.449936 
	C981.285645,266.400452 950.179810,302.687622 918.330750,338.310760 
	C899.923645,358.899139 880.955872,379.105804 855.877869,392.156494 
	C845.589539,397.510590 835.618042,403.473541 824.728577,409.594482 
	C824.583679,406.819519 824.365479,404.889099 824.399719,402.963165 
	C824.938782,372.694611 825.276733,342.419586 826.186523,312.161835 
	C826.564758,299.581757 827.906006,287.008606 829.290955,274.485565 
	C831.928894,250.632996 836.072754,227.010696 844.323608,204.408783 
	C852.804749,181.176193 860.294983,157.534927 875.134766,137.028580 
	C889.315552,117.432899 903.637634,98.203796 921.789612,81.915283 
	C935.900757,69.252808 948.949707,55.400490 962.341553,41.948349 
	C964.655396,39.624058 966.748901,36.868031 968.199158,33.942146 
	C970.892334,28.508793 967.819031,23.845989 961.804504,24.031414 
	C957.356140,24.168558 952.859863,24.474005 948.493774,25.288284 
	C904.590820,33.476345 862.158081,45.992825 822.469543,67.074219 
	C792.647034,82.915054 764.230835,100.585106 739.200500,123.523140 
	C717.979248,142.970490 703.135925,166.617630 692.185364,192.804214 
	C685.472961,208.855957 680.696655,225.716003 674.014038,241.781769 
	C653.424744,291.280548 638.922302,342.667267 626.047546,394.546234 
	C621.325989,413.571899 618.044128,432.954865 613.752197,452.112000 
	C604.839233,445.925995 598.385925,437.921448 593.492981,428.746521 
	C585.127869,413.060883 580.121704,396.110931 576.024292,378.927673 
	C572.591980,364.533905 569.558411,350.033997 566.779602,335.498657 
	C564.209595,322.055786 562.212036,308.503479 560.157288,294.833710 
	C560.192200,294.114044 560.032227,293.560028 559.854614,292.628479 
	C559.733154,291.250183 559.629456,290.249420 559.643677,288.872314 
	C559.443481,287.335052 559.125366,286.174133 558.797913,284.631989 
	C558.587280,282.499512 558.385986,280.748291 558.384033,278.752350 
	C558.210876,277.248413 557.838379,275.989136 557.425293,274.336914 
	C557.325256,272.627502 557.265747,271.311066 557.409790,269.721008 
	C557.360718,267.967987 557.108032,266.488617 556.848267,264.605377 
	C556.619507,261.797455 556.397766,259.393402 556.383301,256.717346 
	C556.350220,254.964508 556.109924,253.483704 555.867188,251.555511 
	C555.662415,245.479813 555.165649,239.843597 555.316650,234.224762 
	C555.668274,221.140167 556.331787,208.063950 557.132324,194.670166 
	C557.223877,189.576019 557.051941,184.796051 556.900757,179.581497 
	C556.671082,175.768509 556.420593,172.390076 556.367554,168.726013 
	C556.705261,165.324265 556.910522,162.176697 552.626953,160.845932 
	C544.357727,158.352844 538.533936,162.666977 533.569031,167.550491 
	C514.451111,186.355164 498.729309,207.887894 486.493866,231.642029 
	C467.755859,268.020416 455.911499,306.942810 447.118164,346.777222 
	C441.951782,370.181335 440.157349,394.035980 439.830902,417.963776 
	C439.688293,428.417786 439.335358,439.049622 440.965332,449.300568 
	C442.921204,461.601532 446.562103,473.678375 450.069916,485.677887 
	C454.693237,501.493378 459.308777,517.355652 464.993652,532.805542 
	C472.824951,554.088867 482.981110,574.312622 496.105927,592.930420 
	C502.330444,601.760071 508.346558,610.742310 514.761841,619.430298 
	C522.451233,629.843811 530.416870,640.055359 538.370178,650.270813 
	C540.698914,653.261841 543.393066,655.968262 545.510742,658.636230 
	C544.161255,658.147217 543.187012,657.902344 542.285217,657.496399 
	C503.294922,639.943604 469.925476,614.706299 440.858917,583.520020 
	C423.716187,565.127014 406.437469,546.859314 389.068909,528.679565 
	C386.254761,525.734009 382.853363,523.209229 379.357605,521.094788 
	C375.921265,519.016296 371.777618,518.518799 368.673920,521.619324 
	C365.192627,525.097046 361.864410,528.909424 363.035156,534.656616 
	C363.720825,538.022400 363.696869,541.530090 364.341278,544.907349 
	C377.075806,611.646118 397.918274,675.606934 428.756622,736.312622 
	C449.277344,776.707764 475.208099,812.783630 509.088318,843.246887 
	C508.632172,843.945984 508.351868,844.423340 507.938446,844.617859 
	C489.320312,853.379211 470.281799,861.351624 452.162781,871.043457 
	C428.024323,883.955078 406.317200,900.410767 387.395081,920.869019 
	C384.879303,921.276550 382.786041,921.857239 380.676727,921.922852 
	C367.243286,922.340637 353.802124,922.527649 340.371429,923.011230 
	C313.134674,923.991882 286.408020,928.411133 260.373688,936.365601 
	C221.808182,948.148804 186.481445,966.545898 153.816635,990.113220 
	C106.147469,1024.505981 73.494583,1069.441650 59.612522,1126.913696 
	C50.982502,1162.642212 49.996971,1199.089722 52.905296,1235.642700 
	C55.048523,1262.579590 62.043037,1287.900269 76.914314,1310.912476 
	C87.857445,1327.845825 99.393242,1344.171753 116.947983,1354.753052 
	C135.613388,1366.003540 154.345917,1377.294800 173.823456,1387.017090 
	C226.902695,1413.511353 283.506226,1430.126709 340.866821,1444.261597 
	C356.628448,1448.145508 372.688049,1450.837646 388.641357,1453.919189 
	C397.700043,1455.668823 406.892731,1456.767822 415.899963,1458.733276 
	C448.583191,1465.864868 481.473907,1470.140137 515.230164,1467.152832 
	C516.408813,1466.980835 517.357300,1466.655029 518.655273,1466.242676 
	C521.090881,1465.170898 523.089172,1463.697632 525.281799,1463.302368 
	C529.721558,1462.502197 532.302368,1459.888550 534.430298,1455.992798 
	C536.797119,1456.319458 538.776001,1456.578247 540.698669,1457.061035 
	C562.130066,1462.440796 583.526428,1467.962769 604.985229,1473.230469 
	C626.929321,1478.617310 648.932312,1483.764160 670.879517,1489.394775 
	C657.950684,1531.595581 646.603394,1573.843384 638.892212,1616.930664 
	C633.241821,1648.503540 628.360352,1680.248169 624.352783,1712.069458 
	C621.516052,1734.593506 620.251770,1757.351196 619.154968,1780.046631 
	C618.352173,1796.657349 618.962158,1813.336304 618.477844,1829.985596 
	C600.049866,1830.318237 582.087097,1830.689941 564.122925,1830.971802 
	C540.658691,1831.340088 517.193054,1831.625366 493.728394,1831.968384 
	C471.931152,1832.286987 450.134827,1832.671997 428.337219,1832.960449 
	C400.040741,1833.334839 371.742950,1833.609985 343.446564,1833.990356 
	C323.147644,1834.263184 302.850067,1834.637939 282.551910,1834.967773 
	C261.922516,1835.303223 241.293213,1835.644897 220.663696,1835.973633 
	C199.200653,1836.315552 177.737137,1836.629639 156.274307,1836.985474 
	C137.810974,1837.291748 119.348312,1837.638550 100.885399,1837.969482 
	C82.088913,1838.306396 63.293575,1838.742920 44.495693,1838.953125 
	C29.998766,1839.115234 15.498680,1838.994751 1.000000,1839.000000 
z"/>
<path fill="#665B49" opacity="1.000000" stroke="none" 
	d="
M1108.070068,1568.099121 
	C1107.721680,1591.076660 1106.244263,1614.105469 1107.284668,1637.019897 
	C1108.922363,1673.085327 1113.721436,1708.799683 1126.878662,1742.840942 
	C1139.002563,1774.208130 1156.857300,1801.786743 1181.656738,1825.479492 
	C1197.468506,1838.565674 1212.089478,1852.374146 1228.505981,1863.543213 
	C1250.488770,1878.499512 1273.829346,1891.466187 1296.646606,1905.187988 
	C1327.372070,1923.665649 1356.666504,1943.999268 1382.107544,1969.517456 
	C1403.095215,1990.568970 1421.806519,2013.464478 1438.493164,2038.032715 
	C1440.877075,2041.542480 1442.841431,2045.337158 1445.000000,2049.000000 
	C1183.979126,2049.000000 922.958191,2049.000000 661.411804,2048.641113 
	C645.288635,2011.434326 634.566162,1973.188843 628.722595,1933.635010 
	C625.956787,1914.913818 623.755859,1896.090698 621.955322,1877.250977 
	C620.454041,1861.543091 619.910217,1845.743774 618.942383,1829.984863 
	C618.962158,1813.336304 618.352173,1796.657349 619.154968,1780.046631 
	C620.251770,1757.351196 621.516052,1734.593506 624.352783,1712.069458 
	C628.360352,1680.248169 633.241821,1648.503540 638.892212,1616.930664 
	C646.603394,1573.843384 657.950684,1531.595581 671.151978,1489.139893 
	C671.763489,1487.390381 671.996521,1486.246582 672.392822,1485.162598 
	C681.917053,1459.108032 690.866333,1432.820801 701.247498,1407.111694 
	C706.437988,1394.257202 713.759766,1382.158691 721.074768,1370.309082 
	C724.917053,1364.084839 731.153259,1359.393311 735.725769,1353.553589 
	C744.996887,1341.712769 756.903625,1334.151489 771.648132,1332.136597 
	C788.389954,1329.848633 805.276489,1327.504395 822.120117,1327.348999 
	C845.180481,1327.136108 868.293945,1328.471436 891.318848,1330.083862 
	C907.177368,1331.194458 922.971252,1333.590210 938.707214,1335.982666 
	C953.467834,1338.226685 968.124329,1341.167725 982.808838,1343.897461 
	C1011.224365,1349.180054 1039.497437,1354.940796 1066.449829,1365.890747 
	C1086.634033,1374.091064 1105.960205,1383.378418 1120.284424,1400.667725 
	C1123.837402,1404.956177 1125.452515,1409.250000 1124.620850,1414.814331 
	C1121.312256,1436.956055 1118.012939,1459.103027 1115.113770,1481.300659 
	C1113.568237,1493.135376 1112.723022,1505.067871 1111.783447,1516.973755 
	C1110.439209,1534.007202 1109.297974,1551.056519 1108.070068,1568.099121 
z"/>
<path fill="#C7DABE" opacity="1.000000" stroke="none" 
	d="
M1445.468628,2049.000000 
	C1442.841431,2045.337158 1440.877075,2041.542480 1438.493164,2038.032715 
	C1421.806519,2013.464478 1403.095215,1990.568970 1382.107544,1969.517456 
	C1356.666504,1943.999268 1327.372070,1923.665649 1296.646606,1905.187988 
	C1273.829346,1891.466187 1250.488770,1878.499512 1228.505981,1863.543213 
	C1212.089478,1852.374146 1197.468506,1838.565674 1181.969238,1825.620605 
	C1183.745117,1824.872070 1185.597412,1824.068115 1187.454590,1824.056641 
	C1204.617065,1823.950073 1221.781250,1824.079834 1238.943481,1823.949463 
	C1272.902710,1823.691772 1306.861328,1823.321289 1340.819946,1822.980591 
	C1372.944946,1822.658325 1405.069214,1822.253296 1437.194702,1821.994751 
	C1485.317871,1821.607300 1533.441895,1821.334839 1581.565430,1820.978271 
	C1623.022949,1820.671143 1664.479980,1820.295288 1705.937500,1819.985596 
	C1754.059814,1819.626221 1802.182495,1819.317017 1850.304810,1818.965332 
	C1893.263062,1818.651489 1936.221558,1818.358887 1979.178955,1817.960205 
	C2002.141235,1817.747070 2025.101562,1817.329102 2048.531250,1817.001709 
	C2049.000000,1894.292847 2049.000000,1971.585815 2049.000000,2049.000000 
	C1847.979126,2049.000000 1646.958130,2049.000000 1445.468628,2049.000000 
z"/>
<path fill="#C7DABE" opacity="1.000000" stroke="none" 
	d="
M618.477783,1829.985596 
	C619.910217,1845.743774 620.454041,1861.543091 621.955322,1877.250977 
	C623.755859,1896.090698 625.956787,1914.913818 628.722595,1933.635010 
	C634.566162,1973.188843 645.288635,2011.434326 660.943115,2048.641113 
	C441.110657,2049.000000 221.221298,2049.000000 1.000000,2049.000000 
	C1.000000,1979.312744 1.000000,1909.625000 1.000000,1839.468628 
	C15.498680,1838.994751 29.998766,1839.115234 44.495693,1838.953125 
	C63.293575,1838.742920 82.088913,1838.306396 100.885399,1837.969482 
	C119.348312,1837.638550 137.810974,1837.291748 156.274307,1836.985474 
	C177.737137,1836.629639 199.200653,1836.315552 220.663696,1835.973633 
	C241.293213,1835.644897 261.922516,1835.303223 282.551910,1834.967773 
	C302.850067,1834.637939 323.147644,1834.263184 343.446564,1833.990356 
	C371.742950,1833.609985 400.040741,1833.334839 428.337219,1832.960449 
	C450.134827,1832.671997 471.931152,1832.286987 493.728394,1831.968384 
	C517.193054,1831.625366 540.658691,1831.340088 564.122925,1830.971802 
	C582.087097,1830.689941 600.049866,1830.318237 618.477783,1829.985596 
z"/>
<path fill="#665B49" opacity="1.000000" stroke="none" 
	d="
M534.016296,1456.028931 
	C532.302368,1459.888550 529.721558,1462.502197 525.281799,1463.302368 
	C523.089172,1463.697632 521.090881,1465.170898 518.305664,1466.151611 
	C516.737732,1466.430908 515.868896,1466.714966 515.000000,1466.999023 
	C481.473907,1470.140137 448.583191,1465.864868 415.899963,1458.733276 
	C406.892731,1456.767822 397.700043,1455.668823 388.641357,1453.919189 
	C372.688049,1450.837646 356.628448,1448.145508 340.866821,1444.261597 
	C283.506226,1430.126709 226.902695,1413.511353 173.823456,1387.017090 
	C154.345917,1377.294800 135.613388,1366.003540 116.947983,1354.753052 
	C99.393242,1344.171753 87.857445,1327.845825 76.914314,1310.912476 
	C62.043037,1287.900269 55.048523,1262.579590 52.905296,1235.642700 
	C49.996971,1199.089722 50.982502,1162.642212 59.612522,1126.913696 
	C73.494583,1069.441650 106.147469,1024.505981 153.816635,990.113220 
	C186.481445,966.545898 221.808182,948.148804 260.373688,936.365601 
	C286.408020,928.411133 313.134674,923.991882 340.371429,923.011230 
	C353.802124,922.527649 367.243286,922.340637 380.676727,921.922852 
	C382.786041,921.857239 384.879303,921.276550 387.868530,920.944946 
	C398.059174,921.308838 407.376190,921.438843 416.660461,922.059021 
	C439.179077,923.563232 461.669830,926.421692 484.194885,926.674011 
	C518.614136,927.059753 553.058960,925.935852 587.480957,925.011230 
	C607.902222,924.462585 628.299561,923.043945 648.709717,922.058655 
	C663.147034,921.361694 677.586487,920.219849 692.027222,920.183777 
	C722.487488,920.107544 752.984558,919.820801 783.399475,921.151123 
	C808.715637,922.258484 834.036926,924.787170 859.170105,928.097412 
	C883.143066,931.254883 906.957947,935.825195 930.684753,940.563477 
	C945.959167,943.613892 960.995056,947.918274 976.052917,951.975769 
	C989.999146,955.733826 1003.962158,959.513977 1017.685059,963.996948 
	C1037.903564,970.601746 1058.026855,977.535645 1077.987915,984.880798 
	C1105.287964,994.926331 1132.592773,1005.008972 1159.536743,1015.958496 
	C1189.709106,1028.220093 1219.490234,1041.445679 1249.423706,1054.293457 
	C1271.419434,1063.734009 1293.361206,1073.300171 1315.373657,1082.701538 
	C1333.728760,1090.541016 1351.895508,1098.918091 1370.608276,1105.799194 
	C1394.455444,1114.568359 1418.481812,1123.115723 1442.959961,1129.830688 
	C1468.213623,1136.758545 1494.096924,1141.395752 1519.714600,1146.990601 
	C1542.253052,1151.912964 1565.004883,1156.008911 1587.304688,1161.838013 
	C1622.069580,1170.925415 1655.969116,1182.845459 1689.310059,1196.264038 
	C1710.418457,1204.759644 1731.307373,1213.733643 1750.633911,1225.963867 
	C1755.473877,1229.026489 1760.750610,1231.399170 1765.826538,1234.088989 
	C1770.812744,1238.133423 1775.407349,1242.824463 1780.847778,1246.118896 
	C1820.700073,1270.252441 1852.019531,1302.848999 1876.346924,1342.270752 
	C1887.233643,1359.912598 1895.709351,1378.681641 1898.476440,1399.581177 
	C1900.054443,1411.500488 1898.015137,1423.113770 1896.094727,1434.782837 
	C1892.973633,1453.746338 1888.279053,1472.091431 1879.225708,1489.322632 
	C1868.170654,1510.363281 1851.816772,1526.468994 1833.438477,1540.739502 
	C1794.885132,1570.676147 1750.986328,1588.378906 1702.983276,1595.978027 
	C1684.472046,1598.908569 1665.839600,1601.650024 1647.159424,1602.788330 
	C1624.804688,1604.150513 1602.339600,1603.704468 1579.297729,1603.849243 
	C1578.116089,1603.754395 1577.559204,1603.851807 1577.002197,1603.949219 
	C1557.236450,1601.963135 1537.450195,1600.154297 1517.719482,1597.865967 
	C1512.824951,1597.298462 1507.318726,1596.733032 1504.319580,1590.656006 
	C1503.338623,1585.837036 1505.980103,1583.712036 1509.201660,1582.471069 
	C1520.978882,1577.933228 1532.819092,1573.555542 1544.677490,1569.232544 
	C1562.646240,1562.682251 1580.737061,1556.456787 1598.612915,1549.664307 
	C1614.116577,1543.773315 1630.057983,1538.532959 1644.616333,1530.773071 
	C1666.861816,1518.915649 1688.327881,1505.524170 1709.657837,1492.044800 
	C1725.260498,1482.184814 1737.791016,1468.959106 1748.206665,1453.553467 
	C1753.619751,1445.547119 1753.971802,1438.002319 1750.307007,1429.646362 
	C1749.238281,1427.209595 1748.299927,1424.711670 1747.145752,1422.317139 
	C1730.734863,1388.275269 1705.459839,1363.119995 1671.427979,1346.692017 
	C1651.824951,1337.229004 1631.058105,1331.101807 1610.003418,1326.234497 
	C1589.486084,1321.491333 1568.709717,1317.743652 1547.917480,1314.353516 
	C1531.071899,1311.606812 1514.043457,1309.958618 1497.078857,1307.971924 
	C1481.595215,1306.158691 1466.094849,1304.481812 1450.589233,1302.865112 
	C1439.865601,1301.746826 1429.122192,1300.814697 1418.384521,1299.833618 
	C1404.183350,1298.535889 1389.977905,1297.284058 1375.776367,1295.989746 
	C1364.210693,1294.935913 1352.621704,1294.074341 1341.090942,1292.719360 
	C1326.769897,1291.036499 1312.485107,1289.026123 1298.208618,1286.988892 
	C1279.320923,1284.293579 1260.381592,1281.858276 1241.603516,1278.526733 
	C1223.001587,1275.226318 1204.470093,1271.381958 1186.091309,1267.005005 
	C1157.171509,1260.117432 1128.374268,1252.704712 1099.583374,1245.288696 
	C1071.269043,1237.995483 1043.145996,1229.924561 1014.719910,1223.109009 
	C986.001709,1216.223267 957.165405,1209.600098 928.093750,1204.497437 
	C907.737000,1200.924438 886.932068,1199.091797 866.262573,1198.390381 
	C851.792969,1197.899414 837.086975,1199.824951 822.711182,1202.094238 
	C795.182312,1206.439697 767.735229,1211.406006 740.402222,1216.856934 
	C717.453125,1221.433350 694.788208,1227.422363 671.865417,1232.145508 
	C636.116211,1239.511353 600.326782,1246.732300 564.407410,1253.198364 
	C549.438110,1255.893066 534.100403,1256.586548 518.912537,1258.000854 
	C511.974091,1258.646973 504.997528,1258.973999 498.030273,1259.197754 
	C488.397430,1259.507080 478.730865,1260.114014 469.125824,1259.639648 
	C452.393372,1258.813721 435.687500,1257.371948 418.988159,1255.976685 
	C403.950470,1254.720337 388.736511,1254.261841 373.955872,1251.528442 
	C347.507812,1246.637573 321.037842,1242.262817 294.239380,1239.916382 
	C273.107635,1238.066284 252.106537,1238.141479 231.243805,1242.789062 
	C226.858856,1243.765991 226.071716,1245.428589 228.410278,1248.729370 
	C233.781647,1256.310303 238.540695,1264.565063 245.033157,1271.062744 
	C259.347900,1285.389038 273.720123,1299.908569 289.676544,1312.274780 
	C306.143433,1325.036377 324.318420,1335.659790 342.111786,1346.625244 
	C358.922546,1356.985229 376.090729,1366.783936 393.313812,1376.451660 
	C416.899780,1389.691040 440.588715,1402.754639 464.417023,1415.551880 
	C484.170776,1426.161011 504.265717,1436.134644 524.028137,1446.728271 
	C527.970093,1448.841309 533.610291,1449.831421 534.016296,1456.028931 
z"/>
<path fill="#A08771" opacity="1.000000" stroke="none" 
	d="
M534.430298,1455.992798 
	C533.610291,1449.831421 527.970093,1448.841309 524.028137,1446.728271 
	C504.265717,1436.134644 484.170776,1426.161011 464.417023,1415.551880 
	C440.588715,1402.754639 416.899780,1389.691040 393.313812,1376.451660 
	C376.090729,1366.783936 358.922546,1356.985229 342.111786,1346.625244 
	C324.318420,1335.659790 306.143433,1325.036377 289.676544,1312.274780 
	C273.720123,1299.908569 259.347900,1285.389038 245.033157,1271.062744 
	C238.540695,1264.565063 233.781647,1256.310303 228.410278,1248.729370 
	C226.071716,1245.428589 226.858856,1243.765991 231.243805,1242.789062 
	C252.106537,1238.141479 273.107635,1238.066284 294.239380,1239.916382 
	C321.037842,1242.262817 347.507812,1246.637573 373.955872,1251.528442 
	C388.736511,1254.261841 403.950470,1254.720337 418.988159,1255.976685 
	C435.687500,1257.371948 452.393372,1258.813721 469.125824,1259.639648 
	C478.730865,1260.114014 488.397430,1259.507080 498.030273,1259.197754 
	C504.997528,1258.973999 511.974091,1258.646973 518.912537,1258.000854 
	C534.100403,1256.586548 549.438110,1255.893066 564.407410,1253.198364 
	C600.326782,1246.732300 636.116211,1239.511353 671.865417,1232.145508 
	C694.788208,1227.422363 717.453125,1221.433350 740.402222,1216.856934 
	C767.735229,1211.406006 795.182312,1206.439697 822.711182,1202.094238 
	C837.086975,1199.824951 851.792969,1197.899414 866.262573,1198.390381 
	C886.932068,1199.091797 907.737000,1200.924438 928.093750,1204.497437 
	C957.165405,1209.600098 986.001709,1216.223267 1014.719910,1223.109009 
	C1043.145996,1229.924561 1071.269043,1237.995483 1099.583374,1245.288696 
	C1128.374268,1252.704712 1157.171509,1260.117432 1186.091309,1267.005005 
	C1204.470093,1271.381958 1223.001587,1275.226318 1241.603516,1278.526733 
	C1260.381592,1281.858276 1279.320923,1284.293579 1298.208618,1286.988892 
	C1312.485107,1289.026123 1326.769897,1291.036499 1341.090942,1292.719360 
	C1352.621704,1294.074341 1364.210693,1294.935913 1375.776367,1295.989746 
	C1389.977905,1297.284058 1404.183350,1298.535889 1418.384521,1299.833618 
	C1429.122192,1300.814697 1439.865601,1301.746826 1450.589233,1302.865112 
	C1466.094849,1304.481812 1481.595215,1306.158691 1497.078857,1307.971924 
	C1514.043457,1309.958618 1531.071899,1311.606812 1547.917480,1314.353516 
	C1568.709717,1317.743652 1589.486084,1321.491333 1610.003418,1326.234497 
	C1631.058105,1331.101807 1651.824951,1337.229004 1671.427979,1346.692017 
	C1705.459839,1363.119995 1730.734863,1388.275269 1747.145752,1422.317139 
	C1748.299927,1424.711670 1749.238281,1427.209595 1750.307007,1429.646362 
	C1753.971802,1438.002319 1753.619751,1445.547119 1748.206665,1453.553467 
	C1737.791016,1468.959106 1725.260498,1482.184814 1709.657837,1492.044800 
	C1688.327881,1505.524170 1666.861816,1518.915649 1644.616333,1530.773071 
	C1630.057983,1538.532959 1614.116577,1543.773315 1598.612915,1549.664307 
	C1580.737061,1556.456787 1562.646240,1562.682251 1544.677490,1569.232544 
	C1532.819092,1573.555542 1520.978882,1577.933228 1509.201660,1582.471069 
	C1505.980103,1583.712036 1503.338623,1585.837036 1504.088379,1590.391235 
	C1483.901733,1591.852661 1463.708862,1593.390747 1443.490601,1593.882935 
	C1421.192261,1594.425659 1398.857056,1594.492065 1376.563110,1593.865356 
	C1356.516113,1593.301880 1336.495361,1591.635010 1316.478027,1590.238770 
	C1298.576294,1588.990112 1280.669800,1587.705322 1262.810913,1585.968750 
	C1239.338135,1583.686646 1215.890503,1581.111084 1192.467407,1578.360962 
	C1164.601318,1575.089233 1136.772583,1571.498657 1108.498901,1568.072754 
	C1109.297974,1551.056519 1110.439209,1534.007202 1111.783447,1516.973755 
	C1112.723022,1505.067871 1113.568237,1493.135376 1115.113770,1481.300659 
	C1118.012939,1459.103027 1121.312256,1436.956055 1124.620850,1414.814331 
	C1125.452515,1409.250000 1123.837402,1404.956177 1120.284424,1400.667725 
	C1105.960205,1383.378418 1086.634033,1374.091064 1066.449829,1365.890747 
	C1039.497437,1354.940796 1011.224365,1349.180054 982.808838,1343.897461 
	C968.124329,1341.167725 953.467834,1338.226685 938.707214,1335.982666 
	C922.971252,1333.590210 907.177368,1331.194458 891.318848,1330.083862 
	C868.293945,1328.471436 845.180481,1327.136108 822.120117,1327.348999 
	C805.276489,1327.504395 788.389954,1329.848633 771.648132,1332.136597 
	C756.903625,1334.151489 744.996887,1341.712769 735.725769,1353.553589 
	C731.153259,1359.393311 724.917053,1364.084839 721.074768,1370.309082 
	C713.759766,1382.158691 706.437988,1394.257202 701.247498,1407.111694 
	C690.866333,1432.820801 681.917053,1459.108032 672.392822,1485.162598 
	C671.996521,1486.246582 671.763489,1487.390381 671.182007,1488.761108 
	C648.932312,1483.764160 626.929321,1478.617310 604.985229,1473.230469 
	C583.526428,1467.962769 562.130066,1462.440796 540.698669,1457.061035 
	C538.776001,1456.578247 536.797119,1456.319458 534.430298,1455.992798 
z"/>
<path fill="#665B49" opacity="1.000000" stroke="none" 
	d="
M1880.982300,703.614258 
	C1910.346313,693.167175 1938.675903,680.407288 1966.200073,665.796631 
	C1976.928589,660.101624 1984.507446,665.227783 1985.155029,677.319763 
	C1985.777588,688.946045 1981.601929,699.005371 1976.122314,708.484680 
	C1963.135620,730.951111 1949.569702,753.083679 1936.162598,775.305725 
	C1925.073975,793.684753 1914.410278,812.349243 1902.617920,830.268372 
	C1878.245972,867.302734 1848.465332,899.712280 1815.892578,929.688904 
	C1786.179810,957.033813 1755.437622,983.039001 1720.016357,1002.763733 
	C1703.036377,1012.219299 1685.299072,1020.314941 1667.249023,1028.942871 
	C1658.906372,1019.503540 1651.098022,1010.244507 1643.556396,1000.773132 
	C1625.323853,977.875549 1605.035522,956.888916 1583.651978,936.993591 
	C1561.507446,916.390137 1538.060913,897.369019 1513.062744,880.222534 
	C1492.199219,865.912109 1470.373901,853.302551 1447.695679,842.285706 
	C1420.489868,829.069397 1392.525635,817.548523 1363.561279,808.607300 
	C1358.229736,806.961487 1353.067993,804.766113 1347.827881,802.824463 
	C1367.785400,789.550903 1387.844604,776.425598 1407.601440,762.859802 
	C1410.941772,760.566223 1413.696899,756.725098 1415.509521,753.007690 
	C1439.202637,704.419617 1458.715576,654.341187 1472.284668,601.834839 
	C1476.443481,585.742004 1476.537842,572.091431 1470.488159,556.485779 
	C1457.841309,523.862122 1450.272705,489.683197 1444.821289,455.080048 
	C1439.788574,423.135376 1437.745728,391.057648 1440.119141,358.779633 
	C1441.747314,336.636047 1445.942871,314.919556 1452.234009,293.636414 
	C1454.144653,287.172546 1456.701904,280.634003 1464.389893,279.126312 
	C1472.104126,277.613464 1477.852539,282.084503 1481.832520,287.666870 
	C1488.479736,296.990387 1494.172363,306.999268 1500.180542,316.772675 
	C1513.997314,339.247742 1531.743652,357.907135 1553.892822,372.313507 
	C1555.426147,373.310760 1557.009521,374.234161 1558.597656,375.142975 
	C1559.159668,375.464752 1559.805420,375.640411 1561.168091,376.183990 
	C1561.800171,370.834869 1562.607544,365.816620 1562.950439,360.766876 
	C1564.052368,344.538635 1564.600098,328.264160 1566.064575,312.071106 
	C1568.591187,284.132141 1567.900391,256.227570 1566.238159,228.304138 
	C1563.718994,185.984955 1556.392578,144.501495 1544.797241,103.730179 
	C1542.959961,97.270119 1542.020020,90.522957 1541.072510,83.850685 
	C1540.124756,77.176544 1544.646362,72.513481 1551.422852,71.925163 
	C1565.833252,70.674080 1578.166016,76.338768 1589.993286,83.380310 
	C1613.621216,97.447655 1632.614380,116.635612 1650.224976,137.544098 
	C1674.421021,166.271255 1693.205811,197.992188 1705.678467,233.396332 
	C1718.339355,269.335419 1727.054199,306.224548 1730.031982,344.249207 
	C1732.666382,377.888550 1734.871094,411.578461 1736.315918,445.286774 
	C1737.011597,461.513550 1735.611328,477.837646 1734.987915,494.111084 
	C1734.503906,506.746765 1733.752686,519.372253 1733.032593,532.855896 
	C1732.651733,536.343994 1732.342773,538.976807 1732.067261,541.613159 
	C1730.568481,555.962463 1729.486694,570.370056 1727.478394,584.647522 
	C1725.100586,601.553162 1722.067749,618.372070 1719.066895,635.183594 
	C1713.718750,665.144531 1706.485962,694.634399 1696.401733,723.386475 
	C1694.794556,727.968750 1693.310303,732.594116 1691.554565,737.841553 
	C1694.921875,737.841553 1697.236450,738.054932 1699.499878,737.805298 
	C1710.374756,736.605957 1721.251953,735.404297 1732.097900,733.972656 
	C1748.362915,731.825745 1764.667236,729.868835 1780.834961,727.124329 
	C1797.979736,724.213989 1815.095825,720.951233 1832.018433,716.967346 
	C1848.475464,713.093140 1864.671631,708.110291 1880.982300,703.614258 
z"/>
<path fill="#665B49" opacity="1.000000" stroke="none" 
	d="
M509.202057,842.893250 
	C475.208099,812.783630 449.277344,776.707764 428.756622,736.312622 
	C397.918274,675.606934 377.075806,611.646118 364.341278,544.907349 
	C363.696869,541.530090 363.720825,538.022400 363.035156,534.656616 
	C361.864410,528.909424 365.192627,525.097046 368.673920,521.619324 
	C371.777618,518.518799 375.921265,519.016296 379.357605,521.094788 
	C382.853363,523.209229 386.254761,525.734009 389.068909,528.679565 
	C406.437469,546.859314 423.716187,565.127014 440.858917,583.520020 
	C469.925476,614.706299 503.294922,639.943604 542.285217,657.496399 
	C543.187012,657.902344 544.161255,658.147217 545.709534,658.799316 
	C570.239502,668.609924 595.023315,674.772156 620.352295,679.422241 
	C620.512085,678.073669 620.654907,677.719543 620.571167,677.431274 
	C620.153870,675.995178 619.734131,674.555115 619.212585,673.154602 
	C607.351624,641.305176 602.770020,608.226135 603.110168,574.430115 
	C603.280518,557.502625 604.140320,540.568176 605.196594,523.668640 
	C605.846802,513.266479 607.347534,502.910400 608.662964,492.558594 
	C610.375244,479.084381 612.282349,465.634949 614.105591,452.174835 
	C618.044128,432.954865 621.325989,413.571899 626.047546,394.546234 
	C638.922302,342.667267 653.424744,291.280548 674.014038,241.781769 
	C680.696655,225.716003 685.472961,208.855957 692.185364,192.804214 
	C703.135925,166.617630 717.979248,142.970490 739.200500,123.523140 
	C764.230835,100.585106 792.647034,82.915054 822.469543,67.074219 
	C862.158081,45.992825 904.590820,33.476345 948.493774,25.288284 
	C952.859863,24.474005 957.356140,24.168558 961.804504,24.031414 
	C967.819031,23.845989 970.892334,28.508793 968.199158,33.942146 
	C966.748901,36.868031 964.655396,39.624058 962.341553,41.948349 
	C948.949707,55.400490 935.900757,69.252808 921.789612,81.915283 
	C903.637634,98.203796 889.315552,117.432899 875.134766,137.028580 
	C860.294983,157.534927 852.804749,181.176193 844.323608,204.408783 
	C836.072754,227.010696 831.928894,250.632996 829.290955,274.485565 
	C827.906006,287.008606 826.564758,299.581757 826.186523,312.161835 
	C825.276733,342.419586 824.938782,372.694611 824.399719,402.963165 
	C824.365479,404.889099 824.583679,406.819519 824.728577,409.594482 
	C835.618042,403.473541 845.589539,397.510590 855.877869,392.156494 
	C880.955872,379.105804 899.923645,358.899139 918.330750,338.310760 
	C950.179810,302.687622 981.285645,266.400452 1012.769653,230.449936 
	C1015.829041,226.956589 1019.271912,223.782532 1022.686462,220.622025 
	C1025.433594,218.079376 1028.824829,216.623398 1032.227539,218.903564 
	C1035.592407,221.158447 1035.468628,224.849960 1034.538330,228.424240 
	C1028.883545,250.151321 1023.345581,271.910034 1017.512939,293.589355 
	C999.608337,360.138458 974.764099,424.160645 946.542603,486.918915 
	C940.023315,501.416443 933.275391,515.880493 925.506287,529.727905 
	C916.984131,544.917664 903.766541,556.197998 890.160400,566.708740 
	C876.211670,577.484192 861.865356,587.757446 847.457947,597.917053 
	C844.164429,600.239563 843.331055,602.272156 844.251587,606.084167 
	C853.370178,643.844971 864.322021,681.075500 879.640564,716.777710 
	C892.691528,747.195190 907.227905,776.976196 921.180115,807.004883 
	C922.504761,809.855713 924.350403,812.464539 925.775513,815.784485 
	C913.669800,818.345825 901.790039,820.688538 889.804443,822.181702 
	C871.881958,824.414490 853.919678,827.126221 835.912170,827.707153 
	C802.008545,828.800903 768.087463,828.260986 734.226318,825.182007 
	C712.912354,823.243958 691.508545,821.579895 670.125610,821.304749 
	C646.378418,820.999023 622.517761,821.343018 598.873596,823.361389 
	C572.256775,825.633667 546.149658,831.540283 520.741821,840.135925 
	C517.011230,841.398010 513.054260,841.990784 509.202057,842.893250 
z"/>
<path fill="#A08771" opacity="1.000000" stroke="none" 
	d="
M509.088318,843.246887 
	C513.054260,841.990784 517.011230,841.398010 520.741821,840.135925 
	C546.149658,831.540283 572.256775,825.633667 598.873596,823.361389 
	C622.517761,821.343018 646.378418,820.999023 670.125610,821.304749 
	C691.508545,821.579895 712.912354,823.243958 734.226318,825.182007 
	C768.087463,828.260986 802.008545,828.800903 835.912170,827.707153 
	C853.919678,827.126221 871.881958,824.414490 889.804443,822.181702 
	C901.790039,820.688538 913.669800,818.345825 925.894958,816.111084 
	C936.262329,813.767944 946.387146,811.933167 956.390747,809.582336 
	C988.414490,802.056824 1020.255981,793.685669 1052.439575,786.936707 
	C1072.557739,782.717834 1093.090698,780.032776 1113.573975,778.121887 
	C1134.573120,776.162903 1155.741577,775.137146 1176.830566,775.212646 
	C1216.190186,775.353455 1255.063232,780.641174 1293.416382,789.416504 
	C1309.448242,793.084656 1325.306152,797.512085 1341.249268,801.570251 
	C1343.164795,802.057678 1345.119019,802.393433 1347.441650,802.812012 
	C1353.067993,804.766113 1358.229736,806.961487 1363.561279,808.607300 
	C1392.525635,817.548523 1420.489868,829.069397 1447.695679,842.285706 
	C1470.373901,853.302551 1492.199219,865.912109 1513.062744,880.222534 
	C1538.060913,897.369019 1561.507446,916.390137 1583.651978,936.993591 
	C1605.035522,956.888916 1625.323853,977.875549 1643.556396,1000.773132 
	C1651.098022,1010.244507 1658.906372,1019.503540 1666.904541,1029.035767 
	C1670.896118,1034.688965 1674.461548,1040.247070 1678.275146,1045.629272 
	C1711.854614,1093.019165 1737.894409,1144.255615 1756.382446,1199.291138 
	C1760.129150,1210.444092 1762.827393,1221.949463 1765.917725,1233.690674 
	C1760.750610,1231.399170 1755.473877,1229.026489 1750.633911,1225.963867 
	C1731.307373,1213.733643 1710.418457,1204.759644 1689.310059,1196.264038 
	C1655.969116,1182.845459 1622.069580,1170.925415 1587.304688,1161.838013 
	C1565.004883,1156.008911 1542.253052,1151.912964 1519.714600,1146.990601 
	C1494.096924,1141.395752 1468.213623,1136.758545 1442.959961,1129.830688 
	C1418.481812,1123.115723 1394.455444,1114.568359 1370.608276,1105.799194 
	C1351.895508,1098.918091 1333.728760,1090.541016 1315.373657,1082.701538 
	C1293.361206,1073.300171 1271.419434,1063.734009 1249.423706,1054.293457 
	C1219.490234,1041.445679 1189.709106,1028.220093 1159.536743,1015.958496 
	C1132.592773,1005.008972 1105.287964,994.926331 1077.987915,984.880798 
	C1058.026855,977.535645 1037.903564,970.601746 1017.685059,963.996948 
	C1003.962158,959.513977 989.999146,955.733826 976.052917,951.975769 
	C960.995056,947.918274 945.959167,943.613892 930.684753,940.563477 
	C906.957947,935.825195 883.143066,931.254883 859.170105,928.097412 
	C834.036926,924.787170 808.715637,922.258484 783.399475,921.151123 
	C752.984558,919.820801 722.487488,920.107544 692.027222,920.183777 
	C677.586487,920.219849 663.147034,921.361694 648.709717,922.058655 
	C628.299561,923.043945 607.902222,924.462585 587.480957,925.011230 
	C553.058960,925.935852 518.614136,927.059753 484.194885,926.674011 
	C461.669830,926.421692 439.179077,923.563232 416.660461,922.059021 
	C407.376190,921.438843 398.059174,921.308838 388.283630,920.880005 
	C406.317200,900.410767 428.024323,883.955078 452.162781,871.043457 
	C470.281799,861.351624 489.320312,853.379211 507.938446,844.617859 
	C508.351868,844.423340 508.632172,843.945984 509.088318,843.246887 
z"/>
<path fill="#A08771" opacity="1.000000" stroke="none" 
	d="
M1880.763184,703.328979 
	C1864.671631,708.110291 1848.475464,713.093140 1832.018433,716.967346 
	C1815.095825,720.951233 1797.979736,724.213989 1780.834961,727.124329 
	C1764.667236,729.868835 1748.362915,731.825745 1732.097900,733.972656 
	C1721.251953,735.404297 1710.374756,736.605957 1699.499878,737.805298 
	C1697.236450,738.054932 1694.921875,737.841553 1691.554565,737.841553 
	C1693.310303,732.594116 1694.794556,727.968750 1696.401733,723.386475 
	C1706.485962,694.634399 1713.718750,665.144531 1719.066895,635.183594 
	C1722.067749,618.372070 1725.100586,601.553162 1727.478394,584.647522 
	C1729.486694,570.370056 1730.568481,555.962463 1732.067261,541.613159 
	C1732.342773,538.976807 1732.651733,536.343994 1733.022583,533.276245 
	C1737.370728,525.959473 1742.092163,519.311279 1745.830933,512.150085 
	C1759.385132,486.188690 1773.227539,460.347351 1785.739624,433.883209 
	C1793.969116,416.477600 1800.692139,398.281616 1806.906006,380.036377 
	C1809.740112,371.714661 1809.570801,362.395538 1811.013672,353.569641 
	C1815.300537,327.343994 1812.832031,301.048309 1810.595703,274.964630 
	C1808.341919,248.680161 1803.575439,222.607117 1799.723755,196.468857 
	C1799.249756,193.252304 1797.652222,190.196442 1796.534180,187.080872 
	C1795.085693,183.044525 1795.751831,178.965347 1799.072998,176.753494 
	C1801.470703,175.156693 1805.529175,174.443207 1808.278931,175.256302 
	C1822.203613,179.374039 1834.802979,186.322662 1845.034302,196.650452 
	C1872.997559,224.877472 1898.432129,255.273712 1918.702393,289.517914 
	C1925.297607,300.659851 1929.569946,313.368530 1933.620483,325.779694 
	C1939.600342,344.101776 1944.142944,362.936737 1945.183228,382.246399 
	C1946.166382,400.495148 1945.884399,418.812012 1945.903076,437.730164 
	C1945.770874,439.241486 1945.894531,440.121643 1946.018311,441.001770 
	C1943.198242,466.934021 1941.248169,492.997101 1937.372314,518.770569 
	C1929.846436,568.816589 1915.466553,617.084900 1896.675537,664.033508 
	C1892.105103,675.452637 1886.933105,686.630310 1882.098389,697.944885 
	C1881.404419,699.569275 1881.053833,701.340454 1880.763184,703.328979 
z"/>
<path fill="#A08772" opacity="1.000000" stroke="none" 
	d="
M613.752197,452.112000 
	C612.282349,465.634949 610.375244,479.084381 608.662964,492.558594 
	C607.347534,502.910400 605.846802,513.266479 605.196594,523.668640 
	C604.140320,540.568176 603.280518,557.502625 603.110168,574.430115 
	C602.770020,608.226135 607.351624,641.305176 619.212585,673.154602 
	C619.734131,674.555115 620.153870,675.995178 620.571167,677.431274 
	C620.654907,677.719543 620.512085,678.073669 620.352295,679.422241 
	C595.023315,674.772156 570.239502,668.609924 546.118530,658.968262 
	C543.393066,655.968262 540.698914,653.261841 538.370178,650.270813 
	C530.416870,640.055359 522.451233,629.843811 514.761841,619.430298 
	C508.346558,610.742310 502.330444,601.760071 496.105927,592.930420 
	C482.981110,574.312622 472.824951,554.088867 464.993652,532.805542 
	C459.308777,517.355652 454.693237,501.493378 450.069916,485.677887 
	C446.562103,473.678375 442.921204,461.601532 440.965332,449.300568 
	C439.335358,439.049622 439.688293,428.417786 439.830902,417.963776 
	C440.157349,394.035980 441.951782,370.181335 447.118164,346.777222 
	C455.911499,306.942810 467.755859,268.020416 486.493866,231.642029 
	C498.729309,207.887894 514.451111,186.355164 533.569031,167.550491 
	C538.533936,162.666977 544.357727,158.352844 552.695251,161.203796 
	C554.130920,164.172653 555.150513,166.592163 556.170105,169.011658 
	C556.420593,172.390076 556.671082,175.768509 556.655518,179.906677 
	C556.549377,185.439072 556.709229,190.211716 556.869019,194.984344 
	C556.331787,208.063950 555.668274,221.140167 555.316650,234.224762 
	C555.165649,239.843597 555.662415,245.479813 555.651611,251.822815 
	C555.684143,254.021454 555.930054,255.505402 556.176025,256.989349 
	C556.397766,259.393402 556.619507,261.797455 556.634033,264.874695 
	C556.686646,267.030151 556.946472,268.512390 557.206299,269.994629 
	C557.265747,271.311066 557.325256,272.627502 557.294983,274.714172 
	C557.531677,276.655304 557.858154,277.826172 558.184692,278.997040 
	C558.385986,280.748291 558.587280,282.499512 558.599365,284.875427 
	C558.782043,286.749634 559.153870,287.999146 559.525696,289.248688 
	C559.629456,290.249420 559.733154,291.250183 559.677368,292.792725 
	C559.665955,293.889465 559.814209,294.444427 559.962402,294.999390 
	C562.212036,308.503479 564.209595,322.055786 566.779602,335.498657 
	C569.558411,350.033997 572.591980,364.533905 576.024292,378.927673 
	C580.121704,396.110931 585.127869,413.060883 593.492981,428.746521 
	C598.385925,437.921448 604.839233,445.925995 613.752197,452.112000 
z"/>
<path fill="#BCAC9E" opacity="1.000000" stroke="none" 
	d="
M557.132385,194.670166 
	C556.709229,190.211716 556.549377,185.439072 556.634766,180.341248 
	C557.051941,184.796051 557.223877,189.576019 557.132385,194.670166 
z"/>
<path fill="#BCAC9E" opacity="1.000000" stroke="none" 
	d="
M556.367554,168.726013 
	C555.150513,166.592163 554.130920,164.172653 553.043030,161.395294 
	C556.910522,162.176697 556.705261,165.324265 556.367554,168.726013 
z"/>
<path fill="#C4B5A6" opacity="1.000000" stroke="none" 
	d="
M557.409851,269.721008 
	C556.946472,268.512390 556.686646,267.030151 556.641113,265.278564 
	C557.108032,266.488617 557.360718,267.967987 557.409851,269.721008 
z"/>
<path fill="#CAB7A9" opacity="1.000000" stroke="none" 
	d="
M556.383240,256.717346 
	C555.930054,255.505402 555.684143,254.021454 555.653931,252.270203 
	C556.109924,253.483704 556.350220,254.964508 556.383240,256.717346 
z"/>
<path fill="#C4B5A6" opacity="1.000000" stroke="none" 
	d="
M559.643677,288.872314 
	C559.153870,287.999146 558.782043,286.749634 558.608765,285.256653 
	C559.125366,286.174133 559.443481,287.335052 559.643677,288.872314 
z"/>
<path fill="#C4B5A6" opacity="1.000000" stroke="none" 
	d="
M558.384033,278.752350 
	C557.858154,277.826172 557.531677,276.655304 557.335571,275.107178 
	C557.838379,275.989136 558.210876,277.248413 558.384033,278.752350 
z"/>
<path fill="#BFAFA1" opacity="1.000000" stroke="none" 
	d="
M1946.234131,440.806335 
	C1945.894531,440.121643 1945.770874,439.241486 1945.890381,438.176575 
	C1946.239014,438.864807 1946.344360,439.737885 1946.234131,440.806335 
z"/>
<path fill="#999081" opacity="1.000000" stroke="none" 
	d="
M515.230164,1467.152832 
	C515.868896,1466.714966 516.737732,1466.430908 517.956177,1466.238037 
	C517.357300,1466.655029 516.408813,1466.980835 515.230164,1467.152832 
z"/>
<path fill="#C4B5A6" opacity="1.000000" stroke="none" 
	d="
M560.157227,294.833710 
	C559.814209,294.444427 559.665955,293.889465 559.695007,293.170258 
	C560.032227,293.560028 560.192200,294.114044 560.157227,294.833710 
z"/>
<path fill="#A0968A" opacity="1.000000" stroke="none" 
	d="
M1577.169189,1604.105347 
	C1577.559204,1603.851807 1578.116089,1603.754395 1578.836426,1603.826904 
	C1578.445312,1604.084961 1577.890625,1604.173218 1577.169189,1604.105347 
z"/>
</svg>
